<svg width="27mm" height="27mm" version="1.1" viewBox="0 0 27 27" fill_color="#FFFFFF" xmlns="http://www.w3.org/2000/svg"><path d="M1.2,1.2H1.8V1.8H1.2zM1.8,1.2H2.4V1.8H1.8zM2.4,1.2H3V1.8H2.4zM3,1.2H3.6V1.8H3zM3.6,1.2H4.2V1.8H3.6zM4.2,1.2H4.8V1.8H4.2zM4.8,1.2H5.4V1.8H4.8zM6,1.2H6.6V1.8H6zM7.2,1.2H7.8V1.8H7.2zM7.8,1.2H8.4V1.8H7.8zM9,1.2H9.6V1.8H9zM9.6,1.2H10.2V1.8H9.6zM10.2,1.2H10.8V1.8H10.2zM12.6,1.2H13.2V1.8H12.6zM13.2,1.2H13.8V1.8H13.2zM14.4,1.2H15V1.8H14.4zM15,1.2H15.6V1.8H15zM15.6,1.2H16.2V1.8H15.6zM16.8,1.2H17.4V1.8H16.8zM18.6,1.2H19.2V1.8H18.6zM19.2,1.2H19.8V1.8H19.2zM21.6,1.2H22.2V1.8H21.6zM22.2,1.2H22.8V1.8H22.2zM22.8,1.2H23.4V1.8H22.8zM23.4,1.2H24V1.8H23.4zM24,1.2H24.6V1.8H24zM24.6,1.2H25.2V1.8H24.6zM25.2,1.2H25.8V1.8H25.2zM1.2,1.8H1.8V2.4H1.2zM4.8,1.8H5.4V2.4H4.8zM6.6,1.8H7.2V2.4H6.6zM7.2,1.8H7.8V2.4H7.2zM7.8,1.8H8.4V2.4H7.8zM9,1.8H9.6V2.4H9zM10.2,1.8H10.8V2.4H10.2zM10.8,1.8H11.4V2.4H10.8zM11.4,1.8H12V2.4H11.4zM12.6,1.8H13.2V2.4H12.6zM13.8,1.8H14.4V2.4H13.8zM14.4,1.8H15V2.4H14.4zM15,1.8H15.6V2.4H15zM16.2,1.8H16.8V2.4H16.2zM16.8,1.8H17.4V2.4H16.8zM19.2,1.8H19.8V2.4H19.2zM20.4,1.8H21V2.4H20.4zM21.6,1.8H22.2V2.4H21.6zM25.2,1.8H25.8V2.4H25.2zM1.2,2.4H1.8V3H1.2zM2.4,2.4H3V3H2.4zM3,2.4H3.6V3H3zM3.6,2.4H4.2V3H3.6zM4.8,2.4H5.4V3H4.8zM6,2.4H6.6V3H6zM6.6,2.4H7.2V3H6.6zM7.2,2.4H7.8V3H7.2zM7.8,2.4H8.4V3H7.8zM8.4,2.4H9V3H8.4zM9.6,2.4H10.2V3H9.6zM10.2,2.4H10.8V3H10.2zM10.8,2.4H11.4V3H10.8zM13.2,2.4H13.8V3H13.2zM14.4,2.4H15V3H14.4zM15.6,2.4H16.2V3H15.6zM16.2,2.4H16.8V3H16.2zM18,2.4H18.6V3H18zM19.8,2.4H20.4V3H19.8zM21.6,2.4H22.2V3H21.6zM22.8,2.4H23.4V3H22.8zM23.4,2.4H24V3H23.4zM24,2.4H24.6V3H24zM25.2,2.4H25.8V3H25.2zM1.2,3H1.8V3.6H1.2zM2.4,3H3V3.6H2.4zM3,3H3.6V3.6H3zM3.6,3H4.2V3.6H3.6zM4.8,3H5.4V3.6H4.8zM7.2,3H7.8V3.6H7.2zM9.6,3H10.2V3.6H9.6zM11.4,3H12V3.6H11.4zM13.8,3H14.4V3.6H13.8zM14.4,3H15V3.6H14.4zM15,3H15.6V3.6H15zM15.6,3H16.2V3.6H15.6zM17.4,3H18V3.6H17.4zM18,3H18.6V3.6H18zM19.2,3H19.8V3.6H19.2zM19.8,3H20.4V3.6H19.8zM20.4,3H21V3.6H20.4zM21.6,3H22.2V3.6H21.6zM22.8,3H23.4V3.6H22.8zM23.4,3H24V3.6H23.4zM24,3H24.6V3.6H24zM25.2,3H25.8V3.6H25.2zM1.2,3.6H1.8V4.2H1.2zM2.4,3.6H3V4.2H2.4zM3,3.6H3.6V4.2H3zM3.6,3.6H4.2V4.2H3.6zM4.8,3.6H5.4V4.2H4.8zM6,3.6H6.6V4.2H6zM6.6,3.6H7.2V4.2H6.6zM7.8,3.6H8.4V4.2H7.8zM9,3.6H9.6V4.2H9zM9.6,3.6H10.2V4.2H9.6zM10.2,3.6H10.8V4.2H10.2zM12,3.6H12.6V4.2H12zM13.2,3.6H13.8V4.2H13.2zM14.4,3.6H15V4.2H14.4zM15,3.6H15.6V4.2H15zM15.6,3.6H16.2V4.2H15.6zM16.2,3.6H16.8V4.2H16.2zM18,3.6H18.6V4.2H18zM18.6,3.6H19.2V4.2H18.6zM19.8,3.6H20.4V4.2H19.8zM20.4,3.6H21V4.2H20.4zM21.6,3.6H22.2V4.2H21.6zM22.8,3.6H23.4V4.2H22.8zM23.4,3.6H24V4.2H23.4zM24,3.6H24.6V4.2H24zM25.2,3.6H25.8V4.2H25.2zM1.2,4.2H1.8V4.8H1.2zM4.8,4.2H5.4V4.8H4.8zM7.2,4.2H7.8V4.8H7.2zM12,4.2H12.6V4.8H12zM13.8,4.2H14.4V4.8H13.8zM16.2,4.2H16.8V4.8H16.2zM18,4.2H18.6V4.8H18zM18.6,4.2H19.2V4.8H18.6zM19.2,4.2H19.8V4.8H19.2zM21.6,4.2H22.2V4.8H21.6zM25.2,4.2H25.8V4.8H25.2zM1.2,4.8H1.8V5.4H1.2zM1.8,4.8H2.4V5.4H1.8zM2.4,4.8H3V5.4H2.4zM3,4.8H3.6V5.4H3zM3.6,4.8H4.2V5.4H3.6zM4.2,4.8H4.8V5.4H4.2zM4.8,4.8H5.4V5.4H4.8zM6,4.8H6.6V5.4H6zM7.2,4.8H7.8V5.4H7.2zM8.4,4.8H9V5.4H8.4zM9.6,4.8H10.2V5.4H9.6zM10.8,4.8H11.4V5.4H10.8zM12,4.8H12.6V5.4H12zM13.2,4.8H13.8V5.4H13.2zM14.4,4.8H15V5.4H14.4zM15.6,4.8H16.2V5.4H15.6zM16.8,4.8H17.4V5.4H16.8zM18,4.8H18.6V5.4H18zM19.2,4.8H19.8V5.4H19.2zM20.4,4.8H21V5.4H20.4zM21.6,4.8H22.2V5.4H21.6zM22.2,4.8H22.8V5.4H22.2zM22.8,4.8H23.4V5.4H22.8zM23.4,4.8H24V5.4H23.4zM24,4.8H24.6V5.4H24zM24.6,4.8H25.2V5.4H24.6zM25.2,4.8H25.8V5.4H25.2zM6,5.4H6.6V6H6zM6.6,5.4H7.2V6H6.6zM7.2,5.4H7.8V6H7.2zM7.8,5.4H8.4V6H7.8zM8.4,5.4H9V6H8.4zM9,5.4H9.6V6H9zM10.8,5.4H11.4V6H10.8zM11.4,5.4H12V6H11.4zM12.6,5.4H13.2V6H12.6zM13.2,5.4H13.8V6H13.2zM14.4,5.4H15V6H14.4zM15,5.4H15.6V6H15zM16.8,5.4H17.4V6H16.8zM19.2,5.4H19.8V6H19.2zM19.8,5.4H20.4V6H19.8zM20.4,5.4H21V6H20.4zM4.2,6H4.8V6.6H4.2zM4.8,6H5.4V6.6H4.8zM7.2,6H7.8V6.6H7.2zM7.8,6H8.4V6.6H7.8zM8.4,6H9V6.6H8.4zM10.2,6H10.8V6.6H10.2zM10.8,6H11.4V6.6H10.8zM13.2,6H13.8V6.6H13.2zM13.8,6H14.4V6.6H13.8zM15,6H15.6V6.6H15zM15.6,6H16.2V6.6H15.6zM17.4,6H18V6.6H17.4zM18.6,6H19.2V6.6H18.6zM19.8,6H20.4V6.6H19.8zM21.6,6H22.2V6.6H21.6zM22.8,6H23.4V6.6H22.8zM24,6H24.6V6.6H24zM25.2,6H25.8V6.6H25.2zM1.2,6.6H1.8V7.2H1.2zM1.8,6.6H2.4V7.2H1.8zM2.4,6.6H3V7.2H2.4zM5.4,6.6H6V7.2H5.4zM8.4,6.6H9V7.2H8.4zM12,6.6H12.6V7.2H12zM13.2,6.6H13.8V7.2H13.2zM13.8,6.6H14.4V7.2H13.8zM16.8,6.6H17.4V7.2H16.8zM17.4,6.6H18V7.2H17.4zM18.6,6.6H19.2V7.2H18.6zM19.2,6.6H19.8V7.2H19.2zM19.8,6.6H20.4V7.2H19.8zM22.2,6.6H22.8V7.2H22.2zM22.8,6.6H23.4V7.2H22.8zM1.2,7.2H1.8V7.8H1.2zM2.4,7.2H3V7.8H2.4zM3.6,7.2H4.2V7.8H3.6zM4.2,7.2H4.8V7.8H4.2zM4.8,7.2H5.4V7.8H4.8zM5.4,7.2H6V7.8H5.4zM6.6,7.2H7.2V7.8H6.6zM7.8,7.2H8.4V7.8H7.8zM8.4,7.2H9V7.8H8.4zM9,7.2H9.6V7.8H9zM9.6,7.2H10.2V7.8H9.6zM10.8,7.2H11.4V7.8H10.8zM11.4,7.2H12V7.8H11.4zM13.2,7.2H13.8V7.8H13.2zM14.4,7.2H15V7.8H14.4zM15.6,7.2H16.2V7.8H15.6zM16.2,7.2H16.8V7.8H16.2zM17.4,7.2H18V7.8H17.4zM19.2,7.2H19.8V7.8H19.2zM20.4,7.2H21V7.8H20.4zM21,7.2H21.6V7.8H21zM22.2,7.2H22.8V7.8H22.2zM1.2,7.8H1.8V8.4H1.2zM2.4,7.8H3V8.4H2.4zM3.6,7.8H4.2V8.4H3.6zM6,7.8H6.6V8.4H6zM8.4,7.8H9V8.4H8.4zM9,7.8H9.6V8.4H9zM11.4,7.8H12V8.4H11.4zM12.6,7.8H13.2V8.4H12.6zM13.2,7.8H13.8V8.4H13.2zM13.8,7.8H14.4V8.4H13.8zM15,7.8H15.6V8.4H15zM18,7.8H18.6V8.4H18zM19.8,7.8H20.4V8.4H19.8zM20.4,7.8H21V8.4H20.4zM21,7.8H21.6V8.4H21zM23.4,7.8H24V8.4H23.4zM24.6,7.8H25.2V8.4H24.6zM1.2,8.4H1.8V9H1.2zM1.8,8.4H2.4V9H1.8zM2.4,8.4H3V9H2.4zM3,8.4H3.6V9H3zM4.8,8.4H5.4V9H4.8zM6,8.4H6.6V9H6zM6.6,8.4H7.2V9H6.6zM7.2,8.4H7.8V9H7.2zM8.4,8.4H9V9H8.4zM9.6,8.4H10.2V9H9.6zM10.8,8.4H11.4V9H10.8zM11.4,8.4H12V9H11.4zM12.6,8.4H13.2V9H12.6zM13.2,8.4H13.8V9H13.2zM14.4,8.4H15V9H14.4zM15.6,8.4H16.2V9H15.6zM20.4,8.4H21V9H20.4zM21,8.4H21.6V9H21zM21.6,8.4H22.2V9H21.6zM22.2,8.4H22.8V9H22.2zM24.6,8.4H25.2V9H24.6zM1.2,9H1.8V9.6H1.2zM2.4,9H3V9.6H2.4zM3.6,9H4.2V9.6H3.6zM4.2,9H4.8V9.6H4.2zM5.4,9H6V9.6H5.4zM6,9H6.6V9.6H6zM6.6,9H7.2V9.6H6.6zM7.8,9H8.4V9.6H7.8zM9,9H9.6V9.6H9zM10.8,9H11.4V9.6H10.8zM11.4,9H12V9.6H11.4zM12,9H12.6V9.6H12zM13.2,9H13.8V9.6H13.2zM15.6,9H16.2V9.6H15.6zM16.2,9H16.8V9.6H16.2zM16.8,9H17.4V9.6H16.8zM18.6,9H19.2V9.6H18.6zM19.2,9H19.8V9.6H19.2zM20.4,9H21V9.6H20.4zM21,9H21.6V9.6H21zM22.2,9H22.8V9.6H22.2zM22.8,9H23.4V9.6H22.8zM23.4,9H24V9.6H23.4zM24,9H24.6V9.6H24zM24.6,9H25.2V9.6H24.6zM25.2,9H25.8V9.6H25.2zM4.8,9.6H5.4V10.2H4.8zM5.4,9.6H6V10.2H5.4zM8.4,9.6H9V10.2H8.4zM9.6,9.6H10.2V10.2H9.6zM10.8,9.6H11.4V10.2H10.8zM12,9.6H12.6V10.2H12zM12.6,9.6H13.2V10.2H12.6zM13.2,9.6H13.8V10.2H13.2zM13.8,9.6H14.4V10.2H13.8zM16.8,9.6H17.4V10.2H16.8zM17.4,9.6H18V10.2H17.4zM18,9.6H18.6V10.2H18zM19.2,9.6H19.8V10.2H19.2zM19.8,9.6H20.4V10.2H19.8zM21,9.6H21.6V10.2H21zM22.8,9.6H23.4V10.2H22.8zM24,9.6H24.6V10.2H24zM1.2,10.2H1.8V10.8H1.2zM3,10.2H3.6V10.8H3zM3.6,10.2H4.2V10.8H3.6zM4.2,10.2H4.8V10.8H4.2zM6,10.2H6.6V10.8H6zM6.6,10.2H7.2V10.8H6.6zM7.2,10.2H7.8V10.8H7.2zM10.8,10.2H11.4V10.8H10.8zM13.2,10.2H13.8V10.8H13.2zM13.8,10.2H14.4V10.8H13.8zM15,10.2H15.6V10.8H15zM15.6,10.2H16.2V10.8H15.6zM16.2,10.2H16.8V10.8H16.2zM18,10.2H18.6V10.8H18zM19.8,10.2H20.4V10.8H19.8zM21,10.2H21.6V10.8H21zM22.2,10.2H22.8V10.8H22.2zM22.8,10.2H23.4V10.8H22.8zM23.4,10.2H24V10.8H23.4zM24,10.2H24.6V10.8H24zM25.2,10.2H25.8V10.8H25.2zM1.2,10.8H1.8V11.4H1.2zM1.8,10.8H2.4V11.4H1.8zM3,10.8H3.6V11.4H3zM4.8,10.8H5.4V11.4H4.8zM7.2,10.8H7.8V11.4H7.2zM7.8,10.8H8.4V11.4H7.8zM9,10.8H9.6V11.4H9zM10.2,10.8H10.8V11.4H10.2zM11.4,10.8H12V11.4H11.4zM13.2,10.8H13.8V11.4H13.2zM14.4,10.8H15V11.4H14.4zM15.6,10.8H16.2V11.4H15.6zM16.2,10.8H16.8V11.4H16.2zM16.8,10.8H17.4V11.4H16.8zM17.4,10.8H18V11.4H17.4zM18.6,10.8H19.2V11.4H18.6zM19.2,10.8H19.8V11.4H19.2zM19.8,10.8H20.4V11.4H19.8zM21,10.8H21.6V11.4H21zM22.2,10.8H22.8V11.4H22.2zM24,10.8H24.6V11.4H24zM1.2,11.4H1.8V12H1.2zM1.8,11.4H2.4V12H1.8zM2.4,11.4H3V12H2.4zM3,11.4H3.6V12H3zM3.6,11.4H4.2V12H3.6zM4.2,11.4H4.8V12H4.2zM6,11.4H6.6V12H6zM9,11.4H9.6V12H9zM10.8,11.4H11.4V12H10.8zM12,11.4H12.6V12H12zM12.6,11.4H13.2V12H12.6zM13.2,11.4H13.8V12H13.2zM13.8,11.4H14.4V12H13.8zM15,11.4H15.6V12H15zM15.6,11.4H16.2V12H15.6zM16.8,11.4H17.4V12H16.8zM17.4,11.4H18V12H17.4zM18,11.4H18.6V12H18zM18.6,11.4H19.2V12H18.6zM19.2,11.4H19.8V12H19.2zM19.8,11.4H20.4V12H19.8zM20.4,11.4H21V12H20.4zM21,11.4H21.6V12H21zM21.6,11.4H22.2V12H21.6zM22.2,11.4H22.8V12H22.2zM22.8,11.4H23.4V12H22.8zM23.4,11.4H24V12H23.4zM25.2,11.4H25.8V12H25.2zM1.2,12H1.8V12.6H1.2zM2.4,12H3V12.6H2.4zM3,12H3.6V12.6H3zM4.2,12H4.8V12.6H4.2zM4.8,12H5.4V12.6H4.8zM5.4,12H6V12.6H5.4zM7.2,12H7.8V12.6H7.2zM7.8,12H8.4V12.6H7.8zM8.4,12H9V12.6H8.4zM9.6,12H10.2V12.6H9.6zM11.4,12H12V12.6H11.4zM12.6,12H13.2V12.6H12.6zM13.8,12H14.4V12.6H13.8zM14.4,12H15V12.6H14.4zM15,12H15.6V12.6H15zM15.6,12H16.2V12.6H15.6zM17.4,12H18V12.6H17.4zM19.8,12H20.4V12.6H19.8zM21,12H21.6V12.6H21zM22.2,12H22.8V12.6H22.2zM22.8,12H23.4V12.6H22.8zM24.6,12H25.2V12.6H24.6zM25.2,12H25.8V12.6H25.2zM1.8,12.6H2.4V13.2H1.8zM2.4,12.6H3V13.2H2.4zM3.6,12.6H4.2V13.2H3.6zM6.6,12.6H7.2V13.2H6.6zM7.8,12.6H8.4V13.2H7.8zM8.4,12.6H9V13.2H8.4zM10.8,12.6H11.4V13.2H10.8zM12,12.6H12.6V13.2H12zM13.8,12.6H14.4V13.2H13.8zM15.6,12.6H16.2V13.2H15.6zM16.8,12.6H17.4V13.2H16.8zM18.6,12.6H19.2V13.2H18.6zM19.2,12.6H19.8V13.2H19.2zM20.4,12.6H21V13.2H20.4zM22.8,12.6H23.4V13.2H22.8zM23.4,12.6H24V13.2H23.4zM1.8,13.2H2.4V13.8H1.8zM4.8,13.2H5.4V13.8H4.8zM6,13.2H6.6V13.8H6zM7.2,13.2H7.8V13.8H7.2zM7.8,13.2H8.4V13.8H7.8zM10.8,13.2H11.4V13.8H10.8zM12,13.2H12.6V13.8H12zM12.6,13.2H13.2V13.8H12.6zM13.2,13.2H13.8V13.8H13.2zM13.8,13.2H14.4V13.8H13.8zM16.2,13.2H16.8V13.8H16.2zM17.4,13.2H18V13.8H17.4zM19.8,13.2H20.4V13.8H19.8zM22.8,13.2H23.4V13.8H22.8zM24,13.2H24.6V13.8H24zM24.6,13.2H25.2V13.8H24.6zM25.2,13.2H25.8V13.8H25.2zM1.2,13.8H1.8V14.4H1.2zM2.4,13.8H3V14.4H2.4zM3,13.8H3.6V14.4H3zM5.4,13.8H6V14.4H5.4zM7.8,13.8H8.4V14.4H7.8zM9.6,13.8H10.2V14.4H9.6zM10.2,13.8H10.8V14.4H10.2zM10.8,13.8H11.4V14.4H10.8zM11.4,13.8H12V14.4H11.4zM12.6,13.8H13.2V14.4H12.6zM16.2,13.8H16.8V14.4H16.2zM17.4,13.8H18V14.4H17.4zM18.6,13.8H19.2V14.4H18.6zM19.2,13.8H19.8V14.4H19.2zM19.8,13.8H20.4V14.4H19.8zM20.4,13.8H21V14.4H20.4zM21,13.8H21.6V14.4H21zM22.2,13.8H22.8V14.4H22.2zM23.4,13.8H24V14.4H23.4zM1.8,14.4H2.4V15H1.8zM3,14.4H3.6V15H3zM3.6,14.4H4.2V15H3.6zM4.2,14.4H4.8V15H4.2zM4.8,14.4H5.4V15H4.8zM6.6,14.4H7.2V15H6.6zM7.2,14.4H7.8V15H7.2zM9.6,14.4H10.2V15H9.6zM10.2,14.4H10.8V15H10.2zM12,14.4H12.6V15H12zM13.2,14.4H13.8V15H13.2zM15,14.4H15.6V15H15zM15.6,14.4H16.2V15H15.6zM16.2,14.4H16.8V15H16.2zM17.4,14.4H18V15H17.4zM18.6,14.4H19.2V15H18.6zM24,14.4H24.6V15H24zM3,15H3.6V15.6H3zM3.6,15H4.2V15.6H3.6zM4.2,15H4.8V15.6H4.2zM5.4,15H6V15.6H5.4zM6,15H6.6V15.6H6zM6.6,15H7.2V15.6H6.6zM7.2,15H7.8V15.6H7.2zM8.4,15H9V15.6H8.4zM9,15H9.6V15.6H9zM10.2,15H10.8V15.6H10.2zM13.2,15H13.8V15.6H13.2zM13.8,15H14.4V15.6H13.8zM14.4,15H15V15.6H14.4zM15,15H15.6V15.6H15zM15.6,15H16.2V15.6H15.6zM16.8,15H17.4V15.6H16.8zM19.8,15H20.4V15.6H19.8zM21,15H21.6V15.6H21zM22.2,15H22.8V15.6H22.2zM23.4,15H24V15.6H23.4zM24.6,15H25.2V15.6H24.6zM25.2,15H25.8V15.6H25.2zM1.2,15.6H1.8V16.2H1.2zM2.4,15.6H3V16.2H2.4zM3,15.6H3.6V16.2H3zM3.6,15.6H4.2V16.2H3.6zM4.8,15.6H5.4V16.2H4.8zM5.4,15.6H6V16.2H5.4zM6,15.6H6.6V16.2H6zM8.4,15.6H9V16.2H8.4zM12,15.6H12.6V16.2H12zM14.4,15.6H15V16.2H14.4zM15.6,15.6H16.2V16.2H15.6zM16.2,15.6H16.8V16.2H16.2zM16.8,15.6H17.4V16.2H16.8zM18,15.6H18.6V16.2H18zM19.8,15.6H20.4V16.2H19.8zM20.4,15.6H21V16.2H20.4zM21.6,15.6H22.2V16.2H21.6zM22.2,15.6H22.8V16.2H22.2zM23.4,15.6H24V16.2H23.4zM1.2,16.2H1.8V16.8H1.2zM2.4,16.2H3V16.8H2.4zM3,16.2H3.6V16.8H3zM4.2,16.2H4.8V16.8H4.2zM5.4,16.2H6V16.8H5.4zM7.2,16.2H7.8V16.8H7.2zM8.4,16.2H9V16.8H8.4zM11.4,16.2H12V16.8H11.4zM13.2,16.2H13.8V16.8H13.2zM16.8,16.2H17.4V16.8H16.8zM17.4,16.2H18V16.8H17.4zM18,16.2H18.6V16.8H18zM18.6,16.2H19.2V16.8H18.6zM19.2,16.2H19.8V16.8H19.2zM19.8,16.2H20.4V16.8H19.8zM21,16.2H21.6V16.8H21zM21.6,16.2H22.2V16.8H21.6zM22.2,16.2H22.8V16.8H22.2zM22.8,16.2H23.4V16.8H22.8zM23.4,16.2H24V16.8H23.4zM25.2,16.2H25.8V16.8H25.2zM1.2,16.8H1.8V17.4H1.2zM1.8,16.8H2.4V17.4H1.8zM3,16.8H3.6V17.4H3zM3.6,16.8H4.2V17.4H3.6zM4.8,16.8H5.4V17.4H4.8zM5.4,16.8H6V17.4H5.4zM7.2,16.8H7.8V17.4H7.2zM7.8,16.8H8.4V17.4H7.8zM8.4,16.8H9V17.4H8.4zM9,16.8H9.6V17.4H9zM9.6,16.8H10.2V17.4H9.6zM11.4,16.8H12V17.4H11.4zM12.6,16.8H13.2V17.4H12.6zM13.2,16.8H13.8V17.4H13.2zM13.8,16.8H14.4V17.4H13.8zM14.4,16.8H15V17.4H14.4zM16.2,16.8H16.8V17.4H16.2zM17.4,16.8H18V17.4H17.4zM18.6,16.8H19.2V17.4H18.6zM20.4,16.8H21V17.4H20.4zM21.6,16.8H22.2V17.4H21.6zM1.8,17.4H2.4V18H1.8zM2.4,17.4H3V18H2.4zM4.2,17.4H4.8V18H4.2zM5.4,17.4H6V18H5.4zM6,17.4H6.6V18H6zM7.2,17.4H7.8V18H7.2zM7.8,17.4H8.4V18H7.8zM8.4,17.4H9V18H8.4zM9.6,17.4H10.2V18H9.6zM10.2,17.4H10.8V18H10.2zM10.8,17.4H11.4V18H10.8zM12.6,17.4H13.2V18H12.6zM15.6,17.4H16.2V18H15.6zM16.2,17.4H16.8V18H16.2zM17.4,17.4H18V18H17.4zM19.8,17.4H20.4V18H19.8zM22.8,17.4H23.4V18H22.8zM23.4,17.4H24V18H23.4zM24,17.4H24.6V18H24zM25.2,17.4H25.8V18H25.2zM1.2,18H1.8V18.6H1.2zM1.8,18H2.4V18.6H1.8zM4.8,18H5.4V18.6H4.8zM5.4,18H6V18.6H5.4zM7.8,18H8.4V18.6H7.8zM8.4,18H9V18.6H8.4zM9.6,18H10.2V18.6H9.6zM11.4,18H12V18.6H11.4zM12,18H12.6V18.6H12zM13.2,18H13.8V18.6H13.2zM16.8,18H17.4V18.6H16.8zM17.4,18H18V18.6H17.4zM18.6,18H19.2V18.6H18.6zM19.2,18H19.8V18.6H19.2zM19.8,18H20.4V18.6H19.8zM20.4,18H21V18.6H20.4zM21.6,18H22.2V18.6H21.6zM22.2,18H22.8V18.6H22.2zM23.4,18H24V18.6H23.4zM24,18H24.6V18.6H24zM1.2,18.6H1.8V19.2H1.2zM1.8,18.6H2.4V19.2H1.8zM3.6,18.6H4.2V19.2H3.6zM5.4,18.6H6V19.2H5.4zM7.8,18.6H8.4V19.2H7.8zM9,18.6H9.6V19.2H9zM9.6,18.6H10.2V19.2H9.6zM11.4,18.6H12V19.2H11.4zM12,18.6H12.6V19.2H12zM12.6,18.6H13.2V19.2H12.6zM13.2,18.6H13.8V19.2H13.2zM15,18.6H15.6V19.2H15zM15.6,18.6H16.2V19.2H15.6zM16.8,18.6H17.4V19.2H16.8zM18,18.6H18.6V19.2H18zM18.6,18.6H19.2V19.2H18.6zM19.2,18.6H19.8V19.2H19.2zM22.2,18.6H22.8V19.2H22.2zM22.8,18.6H23.4V19.2H22.8zM23.4,18.6H24V19.2H23.4zM25.2,18.6H25.8V19.2H25.2zM1.2,19.2H1.8V19.8H1.2zM1.8,19.2H2.4V19.8H1.8zM2.4,19.2H3V19.8H2.4zM3,19.2H3.6V19.8H3zM3.6,19.2H4.2V19.8H3.6zM4.2,19.2H4.8V19.8H4.2zM4.8,19.2H5.4V19.8H4.8zM6,19.2H6.6V19.8H6zM6.6,19.2H7.2V19.8H6.6zM8.4,19.2H9V19.8H8.4zM10.2,19.2H10.8V19.8H10.2zM12.6,19.2H13.2V19.8H12.6zM13.8,19.2H14.4V19.8H13.8zM14.4,19.2H15V19.8H14.4zM16.2,19.2H16.8V19.8H16.2zM18,19.2H18.6V19.8H18zM18.6,19.2H19.2V19.8H18.6zM19.8,19.2H20.4V19.8H19.8zM21,19.2H21.6V19.8H21zM22.8,19.2H23.4V19.8H22.8zM25.2,19.2H25.8V19.8H25.2zM1.2,19.8H1.8V20.4H1.2zM2.4,19.8H3V20.4H2.4zM4.2,19.8H4.8V20.4H4.2zM5.4,19.8H6V20.4H5.4zM6,19.8H6.6V20.4H6zM6.6,19.8H7.2V20.4H6.6zM7.2,19.8H7.8V20.4H7.2zM7.8,19.8H8.4V20.4H7.8zM9,19.8H9.6V20.4H9zM10.2,19.8H10.8V20.4H10.2zM12.6,19.8H13.2V20.4H12.6zM13.8,19.8H14.4V20.4H13.8zM15,19.8H15.6V20.4H15zM15.6,19.8H16.2V20.4H15.6zM16.2,19.8H16.8V20.4H16.2zM17.4,19.8H18V20.4H17.4zM18,19.8H18.6V20.4H18zM21.6,19.8H22.2V20.4H21.6zM23.4,19.8H24V20.4H23.4zM25.2,19.8H25.8V20.4H25.2zM1.2,20.4H1.8V21H1.2zM3,20.4H3.6V21H3zM4.8,20.4H5.4V21H4.8zM5.4,20.4H6V21H5.4zM7.2,20.4H7.8V21H7.2zM7.8,20.4H8.4V21H7.8zM9,20.4H9.6V21H9zM10.2,20.4H10.8V21H10.2zM10.8,20.4H11.4V21H10.8zM12.6,20.4H13.2V21H12.6zM13.2,20.4H13.8V21H13.2zM14.4,20.4H15V21H14.4zM15.6,20.4H16.2V21H15.6zM16.2,20.4H16.8V21H16.2zM18.6,20.4H19.2V21H18.6zM20.4,20.4H21V21H20.4zM21,20.4H21.6V21H21zM21.6,20.4H22.2V21H21.6zM22.2,20.4H22.8V21H22.2zM22.8,20.4H23.4V21H22.8zM24,20.4H24.6V21H24zM25.2,20.4H25.8V21H25.2zM6,21H6.6V21.6H6zM6.6,21H7.2V21.6H6.6zM7.8,21H8.4V21.6H7.8zM9.6,21H10.2V21.6H9.6zM10.2,21H10.8V21.6H10.2zM11.4,21H12V21.6H11.4zM12,21H12.6V21.6H12zM15,21H15.6V21.6H15zM15.6,21H16.2V21.6H15.6zM16.2,21H16.8V21.6H16.2zM16.8,21H17.4V21.6H16.8zM17.4,21H18V21.6H17.4zM19.2,21H19.8V21.6H19.2zM20.4,21H21V21.6H20.4zM22.8,21H23.4V21.6H22.8zM23.4,21H24V21.6H23.4zM24,21H24.6V21.6H24zM1.2,21.6H1.8V22.2H1.2zM1.8,21.6H2.4V22.2H1.8zM2.4,21.6H3V22.2H2.4zM3,21.6H3.6V22.2H3zM3.6,21.6H4.2V22.2H3.6zM4.2,21.6H4.8V22.2H4.2zM4.8,21.6H5.4V22.2H4.8zM7.8,21.6H8.4V22.2H7.8zM9,21.6H9.6V22.2H9zM9.6,21.6H10.2V22.2H9.6zM10.2,21.6H10.8V22.2H10.2zM10.8,21.6H11.4V22.2H10.8zM12,21.6H12.6V22.2H12zM13.2,21.6H13.8V22.2H13.2zM13.8,21.6H14.4V22.2H13.8zM16.2,21.6H16.8V22.2H16.2zM16.8,21.6H17.4V22.2H16.8zM17.4,21.6H18V22.2H17.4zM19.2,21.6H19.8V22.2H19.2zM19.8,21.6H20.4V22.2H19.8zM20.4,21.6H21V22.2H20.4zM21.6,21.6H22.2V22.2H21.6zM22.8,21.6H23.4V22.2H22.8zM23.4,21.6H24V22.2H23.4zM1.2,22.2H1.8V22.8H1.2zM4.8,22.2H5.4V22.8H4.8zM6,22.2H6.6V22.8H6zM6.6,22.2H7.2V22.8H6.6zM8.4,22.2H9V22.8H8.4zM9,22.2H9.6V22.8H9zM10.2,22.2H10.8V22.8H10.2zM10.8,22.2H11.4V22.8H10.8zM12,22.2H12.6V22.8H12zM12.6,22.2H13.2V22.8H12.6zM13.8,22.2H14.4V22.8H13.8zM14.4,22.2H15V22.8H14.4zM15.6,22.2H16.2V22.8H15.6zM16.2,22.2H16.8V22.8H16.2zM16.8,22.2H17.4V22.8H16.8zM18,22.2H18.6V22.8H18zM20.4,22.2H21V22.8H20.4zM22.8,22.2H23.4V22.8H22.8zM23.4,22.2H24V22.8H23.4zM24.6,22.2H25.2V22.8H24.6zM25.2,22.2H25.8V22.8H25.2zM1.2,22.8H1.8V23.4H1.2zM2.4,22.8H3V23.4H2.4zM3,22.8H3.6V23.4H3zM3.6,22.8H4.2V23.4H3.6zM4.8,22.8H5.4V23.4H4.8zM6.6,22.8H7.2V23.4H6.6zM8.4,22.8H9V23.4H8.4zM12,22.8H12.6V23.4H12zM14.4,22.8H15V23.4H14.4zM15,22.8H15.6V23.4H15zM16.2,22.8H16.8V23.4H16.2zM16.8,22.8H17.4V23.4H16.8zM18,22.8H18.6V23.4H18zM18.6,22.8H19.2V23.4H18.6zM19.2,22.8H19.8V23.4H19.2zM19.8,22.8H20.4V23.4H19.8zM20.4,22.8H21V23.4H20.4zM21,22.8H21.6V23.4H21zM21.6,22.8H22.2V23.4H21.6zM22.2,22.8H22.8V23.4H22.2zM22.8,22.8H23.4V23.4H22.8zM1.2,23.4H1.8V24H1.2zM2.4,23.4H3V24H2.4zM3,23.4H3.6V24H3zM3.6,23.4H4.2V24H3.6zM4.8,23.4H5.4V24H4.8zM6.6,23.4H7.2V24H6.6zM8.4,23.4H9V24H8.4zM11.4,23.4H12V24H11.4zM14.4,23.4H15V24H14.4zM16.2,23.4H16.8V24H16.2zM16.8,23.4H17.4V24H16.8zM17.4,23.4H18V24H17.4zM18,23.4H18.6V24H18zM18.6,23.4H19.2V24H18.6zM20.4,23.4H21V24H20.4zM22.2,23.4H22.8V24H22.2zM23.4,23.4H24V24H23.4zM25.2,23.4H25.8V24H25.2zM1.2,24H1.8V24.6H1.2zM2.4,24H3V24.6H2.4zM3,24H3.6V24.6H3zM3.6,24H4.2V24.6H3.6zM4.8,24H5.4V24.6H4.8zM7.2,24H7.8V24.6H7.2zM8.4,24H9V24.6H8.4zM10.2,24H10.8V24.6H10.2zM10.8,24H11.4V24.6H10.8zM11.4,24H12V24.6H11.4zM12,24H12.6V24.6H12zM12.6,24H13.2V24.6H12.6zM13.2,24H13.8V24.6H13.2zM13.8,24H14.4V24.6H13.8zM14.4,24H15V24.6H14.4zM15.6,24H16.2V24.6H15.6zM16.2,24H16.8V24.6H16.2zM16.8,24H17.4V24.6H16.8zM17.4,24H18V24.6H17.4zM18,24H18.6V24.6H18zM19.2,24H19.8V24.6H19.2zM21,24H21.6V24.6H21zM21.6,24H22.2V24.6H21.6zM22.2,24H22.8V24.6H22.2zM22.8,24H23.4V24.6H22.8zM23.4,24H24V24.6H23.4zM24,24H24.6V24.6H24zM24.6,24H25.2V24.6H24.6zM1.2,24.6H1.8V25.2H1.2zM4.8,24.6H5.4V25.2H4.8zM6.6,24.6H7.2V25.2H6.6zM7.8,24.6H8.4V25.2H7.8zM9,24.6H9.6V25.2H9zM9.6,24.6H10.2V25.2H9.6zM10.2,24.6H10.8V25.2H10.2zM10.8,24.6H11.4V25.2H10.8zM12,24.6H12.6V25.2H12zM14.4,24.6H15V25.2H14.4zM15.6,24.6H16.2V25.2H15.6zM16.2,24.6H16.8V25.2H16.2zM17.4,24.6H18V25.2H17.4zM19.2,24.6H19.8V25.2H19.2zM21,24.6H21.6V25.2H21zM21.6,24.6H22.2V25.2H21.6zM22.8,24.6H23.4V25.2H22.8zM24,24.6H24.6V25.2H24zM25.2,24.6H25.8V25.2H25.2zM1.2,25.2H1.8V25.8H1.2zM1.8,25.2H2.4V25.8H1.8zM2.4,25.2H3V25.8H2.4zM3,25.2H3.6V25.8H3zM3.6,25.2H4.2V25.8H3.6zM4.2,25.2H4.8V25.8H4.2zM4.8,25.2H5.4V25.8H4.8zM6.6,25.2H7.2V25.8H6.6zM7.8,25.2H8.4V25.8H7.8zM8.4,25.2H9V25.8H8.4zM10.8,25.2H11.4V25.8H10.8zM12.6,25.2H13.2V25.8H12.6zM13.8,25.2H14.4V25.8H13.8zM14.4,25.2H15V25.8H14.4zM15,25.2H15.6V25.8H15zM15.6,25.2H16.2V25.8H15.6zM16.2,25.2H16.8V25.8H16.2zM18.6,25.2H19.2V25.8H18.6zM19.8,25.2H20.4V25.8H19.8zM22.2,25.2H22.8V25.8H22.2zM22.8,25.2H23.4V25.8H22.8z" id="qr-path" fill="#FFFFFF" fill-opacity="1" fill-rule="nonzero" stroke="none"/></svg>